<mxfile host="app.diagrams.net" modified="2022-05-20T15:08:16.490Z" agent="5.0 (Windows)" etag="VKiQuhdouCVsNnxMSK2y" version="18.0.8" type="github">
  <diagram id="m4_wPzhkBYTgOvD4pY8l" name="Page-1">
    <mxGraphModel dx="2500" dy="885" grid="1" gridSize="10" guides="1" tooltips="1" connect="1" arrows="1" fold="1" page="1" pageScale="1" pageWidth="827" pageHeight="1169" math="0" shadow="0">
      <root>
        <mxCell id="0" />
        <mxCell id="1" parent="0" />
        <mxCell id="-nhubuoIuJu4ggT3_inp-13" value="    ptp_clock.v" style="swimlane;fontStyle=0;align=left;" parent="1" vertex="1">
          <mxGeometry x="10" y="30" width="160" height="160" as="geometry" />
        </mxCell>
        <mxCell id="-nhubuoIuJu4ggT3_inp-25" value="" style="triangle;whiteSpace=wrap;html=1;fontSize=10;align=left;" parent="-nhubuoIuJu4ggT3_inp-13" vertex="1">
          <mxGeometry y="45" width="10" height="10" as="geometry" />
        </mxCell>
        <mxCell id="-nhubuoIuJu4ggT3_inp-14" value="" style="edgeStyle=elbowEdgeStyle;elbow=vertical;endArrow=none;html=1;rounded=0;fontSize=10;startArrow=classic;startFill=1;endFill=0;align=left;" parent="1" edge="1">
          <mxGeometry width="50" height="50" relative="1" as="geometry">
            <mxPoint x="10" y="170" as="sourcePoint" />
            <mxPoint x="-120" y="170" as="targetPoint" />
          </mxGeometry>
        </mxCell>
        <mxCell id="-nhubuoIuJu4ggT3_inp-17" value="drift adjustment" style="text;html=1;strokeColor=none;fillColor=none;align=left;verticalAlign=middle;whiteSpace=wrap;rounded=0;spacingBottom=6;fontSize=10;" parent="1" vertex="1">
          <mxGeometry x="-120" y="150" width="130" height="30" as="geometry" />
        </mxCell>
        <mxCell id="-nhubuoIuJu4ggT3_inp-18" value="" style="edgeStyle=elbowEdgeStyle;elbow=vertical;endArrow=none;html=1;rounded=0;fontSize=10;startArrow=classic;startFill=1;endFill=0;align=left;" parent="1" edge="1">
          <mxGeometry width="50" height="50" relative="1" as="geometry">
            <mxPoint x="10" y="150" as="sourcePoint" />
            <mxPoint x="-120" y="150" as="targetPoint" />
          </mxGeometry>
        </mxCell>
        <mxCell id="-nhubuoIuJu4ggT3_inp-19" value="offset adjustment" style="text;html=1;strokeColor=none;fillColor=none;align=left;verticalAlign=middle;whiteSpace=wrap;rounded=0;spacingBottom=6;fontSize=10;" parent="1" vertex="1">
          <mxGeometry x="-120" y="130" width="130" height="30" as="geometry" />
        </mxCell>
        <mxCell id="-nhubuoIuJu4ggT3_inp-20" value="" style="edgeStyle=elbowEdgeStyle;elbow=vertical;endArrow=none;html=1;rounded=0;fontSize=10;startArrow=classic;startFill=1;endFill=0;align=left;" parent="1" edge="1">
          <mxGeometry width="50" height="50" relative="1" as="geometry">
            <mxPoint x="10" y="130" as="sourcePoint" />
            <mxPoint x="-120" y="130" as="targetPoint" />
          </mxGeometry>
        </mxCell>
        <mxCell id="-nhubuoIuJu4ggT3_inp-21" value="period adjustment" style="text;html=1;strokeColor=none;fillColor=none;align=left;verticalAlign=middle;whiteSpace=wrap;rounded=0;spacingBottom=6;fontSize=10;" parent="1" vertex="1">
          <mxGeometry x="-120" y="110" width="130" height="30" as="geometry" />
        </mxCell>
        <mxCell id="-nhubuoIuJu4ggT3_inp-22" value="" style="edgeStyle=elbowEdgeStyle;elbow=vertical;endArrow=none;html=1;rounded=0;fontSize=10;startArrow=classic;startFill=1;endFill=0;align=left;" parent="1" edge="1">
          <mxGeometry width="50" height="50" relative="1" as="geometry">
            <mxPoint x="10" y="110" as="sourcePoint" />
            <mxPoint x="-120" y="110" as="targetPoint" />
          </mxGeometry>
        </mxCell>
        <mxCell id="-nhubuoIuJu4ggT3_inp-23" value="start timestamp" style="text;html=1;strokeColor=none;fillColor=none;align=left;verticalAlign=middle;whiteSpace=wrap;rounded=0;spacingBottom=6;fontSize=10;" parent="1" vertex="1">
          <mxGeometry x="-120" y="90" width="130" height="30" as="geometry" />
        </mxCell>
        <mxCell id="-nhubuoIuJu4ggT3_inp-24" value="" style="edgeStyle=elbowEdgeStyle;elbow=vertical;endArrow=classic;html=1;rounded=0;fontSize=10;align=left;" parent="1" edge="1">
          <mxGeometry width="50" height="50" relative="1" as="geometry">
            <mxPoint x="-160" y="80" as="sourcePoint" />
            <mxPoint x="10" y="80" as="targetPoint" />
          </mxGeometry>
        </mxCell>
        <mxCell id="-nhubuoIuJu4ggT3_inp-26" value="clk_ptp (250MHz)" style="text;html=1;strokeColor=none;fillColor=none;align=left;verticalAlign=middle;whiteSpace=wrap;rounded=0;spacingBottom=6;fontSize=10;" parent="1" vertex="1">
          <mxGeometry x="-130" y="60" width="130" height="30" as="geometry" />
        </mxCell>
        <mxCell id="-nhubuoIuJu4ggT3_inp-27" value="    ptp_perout.v" style="swimlane;fontStyle=0;align=left;" parent="1" vertex="1">
          <mxGeometry x="280" y="30" width="160" height="160" as="geometry" />
        </mxCell>
        <mxCell id="-nhubuoIuJu4ggT3_inp-28" value="" style="triangle;whiteSpace=wrap;html=1;fontSize=10;" parent="-nhubuoIuJu4ggT3_inp-27" vertex="1">
          <mxGeometry y="45" width="10" height="10" as="geometry" />
        </mxCell>
        <mxCell id="-nhubuoIuJu4ggT3_inp-29" value="" style="edgeStyle=elbowEdgeStyle;elbow=vertical;endArrow=none;html=1;rounded=0;fontSize=10;exitX=0.923;exitY=0.667;exitDx=0;exitDy=0;exitPerimeter=0;endFill=0;startArrow=oval;startFill=1;" parent="1" source="-nhubuoIuJu4ggT3_inp-26" edge="1">
          <mxGeometry width="50" height="50" relative="1" as="geometry">
            <mxPoint x="60" y="120" as="sourcePoint" />
            <mxPoint x="190" y="10" as="targetPoint" />
            <Array as="points">
              <mxPoint x="100" y="10" />
              <mxPoint x="180" y="20" />
              <mxPoint x="120" y="10" />
            </Array>
          </mxGeometry>
        </mxCell>
        <mxCell id="-nhubuoIuJu4ggT3_inp-32" value="" style="edgeStyle=segmentEdgeStyle;endArrow=classic;html=1;rounded=0;fontSize=10;entryX=0;entryY=0.5;entryDx=0;entryDy=0;" parent="1" target="-nhubuoIuJu4ggT3_inp-28" edge="1">
          <mxGeometry width="50" height="50" relative="1" as="geometry">
            <mxPoint x="190" y="10" as="sourcePoint" />
            <mxPoint x="150" y="60" as="targetPoint" />
            <Array as="points">
              <mxPoint x="190" y="10" />
              <mxPoint x="190" y="80" />
            </Array>
          </mxGeometry>
        </mxCell>
        <mxCell id="-nhubuoIuJu4ggT3_inp-33" value="" style="edgeStyle=elbowEdgeStyle;elbow=horizontal;endArrow=classic;html=1;rounded=0;fontSize=10;entryX=0;entryY=0.5;entryDx=0;entryDy=0;exitX=1;exitY=0.5;exitDx=0;exitDy=0;" parent="1" source="-nhubuoIuJu4ggT3_inp-13" target="-nhubuoIuJu4ggT3_inp-27" edge="1">
          <mxGeometry width="50" height="50" relative="1" as="geometry">
            <mxPoint x="210" y="110" as="sourcePoint" />
            <mxPoint x="70" y="100" as="targetPoint" />
          </mxGeometry>
        </mxCell>
        <mxCell id="-nhubuoIuJu4ggT3_inp-34" value="ptp_ts_96[95:00]" style="text;html=1;strokeColor=none;fillColor=none;align=center;verticalAlign=middle;whiteSpace=wrap;rounded=0;spacingBottom=6;fontSize=10;" parent="1" vertex="1">
          <mxGeometry x="150" y="90" width="130" height="30" as="geometry" />
        </mxCell>
        <mxCell id="-nhubuoIuJu4ggT3_inp-37" value="ptp_perout_pulse " style="text;html=1;strokeColor=none;fillColor=none;align=center;verticalAlign=middle;whiteSpace=wrap;rounded=0;spacingBottom=6;fontSize=10;" parent="1" vertex="1">
          <mxGeometry x="440" y="90" width="110" height="30" as="geometry" />
        </mxCell>
        <mxCell id="-nhubuoIuJu4ggT3_inp-38" value="" style="edgeStyle=elbowEdgeStyle;elbow=horizontal;endArrow=classic;html=1;rounded=0;fontSize=10;entryX=0;entryY=0.5;entryDx=0;entryDy=0;exitX=1;exitY=0.5;exitDx=0;exitDy=0;" parent="1" edge="1">
          <mxGeometry width="50" height="50" relative="1" as="geometry">
            <mxPoint x="440" y="110" as="sourcePoint" />
            <mxPoint x="550" y="110" as="targetPoint" />
          </mxGeometry>
        </mxCell>
        <mxCell id="-nhubuoIuJu4ggT3_inp-46" value="    axis_async_fifo_adapter.v" style="swimlane;fontStyle=0;align=left;" parent="1" vertex="1">
          <mxGeometry x="-80" y="960" width="160" height="160" as="geometry" />
        </mxCell>
        <mxCell id="-nhubuoIuJu4ggT3_inp-47" value="&lt;div align=&quot;left&quot;&gt;FIFO for RX Ethernet Frames&lt;/div&gt;&lt;div align=&quot;left&quot;&gt;FIFO width: 8 bits&lt;/div&gt;&lt;div align=&quot;left&quot;&gt;FIFO depth: 4096&lt;br&gt;&lt;/div&gt;" style="text;html=1;strokeColor=none;fillColor=none;align=left;verticalAlign=top;whiteSpace=wrap;rounded=0;fontSize=10;labelPosition=center;verticalLabelPosition=middle;" parent="-nhubuoIuJu4ggT3_inp-46" vertex="1">
          <mxGeometry x="10" y="30" width="140" height="130" as="geometry" />
        </mxCell>
        <mxCell id="-nhubuoIuJu4ggT3_inp-48" value="    axis_async_fifo_adapter.v" style="swimlane;fontStyle=0;align=left;" parent="1" vertex="1">
          <mxGeometry x="120" y="960" width="160" height="160" as="geometry" />
        </mxCell>
        <mxCell id="-nhubuoIuJu4ggT3_inp-49" value="&lt;div align=&quot;left&quot;&gt;FIFO for TX Ethernet Frames&lt;/div&gt;&lt;div align=&quot;left&quot;&gt;FIFO width: 8 bits&lt;/div&gt;&lt;div align=&quot;left&quot;&gt;FIFO depth: 4096&lt;br&gt;&lt;/div&gt;&lt;div align=&quot;left&quot;&gt;&lt;br&gt;&lt;/div&gt;" style="text;html=1;strokeColor=none;fillColor=none;align=left;verticalAlign=top;whiteSpace=wrap;rounded=0;fontSize=10;labelPosition=center;verticalLabelPosition=middle;" parent="-nhubuoIuJu4ggT3_inp-48" vertex="1">
          <mxGeometry x="10" y="30" width="140" height="130" as="geometry" />
        </mxCell>
        <mxCell id="-nhubuoIuJu4ggT3_inp-50" value="    axis_fifo.v" style="swimlane;fontStyle=0;align=left;" parent="1" vertex="1">
          <mxGeometry x="520" y="960" width="160" height="160" as="geometry" />
        </mxCell>
        <mxCell id="-nhubuoIuJu4ggT3_inp-55" value="&lt;div align=&quot;left&quot;&gt;FIFO for PTP Timestamps&lt;/div&gt;&lt;div align=&quot;left&quot;&gt;of RX Frame&lt;/div&gt;&lt;div align=&quot;left&quot;&gt;FIFO width: 96 bit&lt;/div&gt;&lt;div align=&quot;left&quot;&gt;FIFO depth: 64&lt;br&gt;&lt;/div&gt;" style="text;html=1;strokeColor=none;fillColor=none;align=left;verticalAlign=top;whiteSpace=wrap;rounded=0;fontSize=10;labelPosition=center;verticalLabelPosition=middle;" parent="-nhubuoIuJu4ggT3_inp-50" vertex="1">
          <mxGeometry x="10" y="30" width="140" height="130" as="geometry" />
        </mxCell>
        <mxCell id="-nhubuoIuJu4ggT3_inp-52" value="    axis_fifo.v" style="swimlane;fontStyle=0;align=left;" parent="1" vertex="1">
          <mxGeometry x="320" y="960" width="160" height="160" as="geometry" />
        </mxCell>
        <mxCell id="-nhubuoIuJu4ggT3_inp-53" value="&lt;div align=&quot;left&quot;&gt;FIFO for PTP Timestamps&lt;/div&gt;&lt;div align=&quot;left&quot;&gt;of RX Frame&lt;/div&gt;&lt;div align=&quot;left&quot;&gt;FIFO width: 96 bit&lt;/div&gt;&lt;div align=&quot;left&quot;&gt;FIFO depth: 64&lt;br&gt;&lt;/div&gt;" style="text;html=1;strokeColor=none;fillColor=none;align=left;verticalAlign=top;whiteSpace=wrap;rounded=0;fontSize=10;labelPosition=center;verticalLabelPosition=middle;" parent="-nhubuoIuJu4ggT3_inp-52" vertex="1">
          <mxGeometry x="10" y="30" width="140" height="130" as="geometry" />
        </mxCell>
        <mxCell id="R2FVKgh_fxsD744rfTFJ-1" value="" style="shape=flexArrow;endArrow=classic;html=1;rounded=0;fontSize=10;exitX=0.5;exitY=1;exitDx=0;exitDy=0;" edge="1" parent="1" source="-nhubuoIuJu4ggT3_inp-47">
          <mxGeometry width="50" height="50" relative="1" as="geometry">
            <mxPoint x="-30" y="1200" as="sourcePoint" />
            <mxPoint y="1190" as="targetPoint" />
          </mxGeometry>
        </mxCell>
        <mxCell id="R2FVKgh_fxsD744rfTFJ-2" value="" style="shape=flexArrow;endArrow=classic;html=1;rounded=0;fontSize=10;entryX=0.5;entryY=1;entryDx=0;entryDy=0;" edge="1" parent="1" target="-nhubuoIuJu4ggT3_inp-49">
          <mxGeometry width="50" height="50" relative="1" as="geometry">
            <mxPoint x="200" y="1180" as="sourcePoint" />
            <mxPoint x="240" y="1238.9999999999998" as="targetPoint" />
          </mxGeometry>
        </mxCell>
        <mxCell id="R2FVKgh_fxsD744rfTFJ-4" value="" style="shape=flexArrow;endArrow=classic;html=1;rounded=0;fontSize=10;exitX=0.5;exitY=1;exitDx=0;exitDy=0;" edge="1" parent="1">
          <mxGeometry width="50" height="50" relative="1" as="geometry">
            <mxPoint x="399.66" y="1119.9999999999998" as="sourcePoint" />
            <mxPoint x="399.66" y="1189.9999999999998" as="targetPoint" />
          </mxGeometry>
        </mxCell>
        <mxCell id="R2FVKgh_fxsD744rfTFJ-5" value="" style="shape=flexArrow;endArrow=classic;html=1;rounded=0;fontSize=10;exitX=0.5;exitY=1;exitDx=0;exitDy=0;" edge="1" parent="1">
          <mxGeometry width="50" height="50" relative="1" as="geometry">
            <mxPoint x="599.66" y="1119.9999999999998" as="sourcePoint" />
            <mxPoint x="599.66" y="1189.9999999999998" as="targetPoint" />
          </mxGeometry>
        </mxCell>
        <mxCell id="R2FVKgh_fxsD744rfTFJ-6" value="    eth_mac_1g_rgmii_fifo.v" style="swimlane;align=left;fontStyle=0" vertex="1" parent="1">
          <mxGeometry x="-105" y="275" width="845" height="875" as="geometry">
            <mxRectangle x="10" y="230" width="110" height="23" as="alternateBounds" />
          </mxGeometry>
        </mxCell>
        <mxCell id="R2FVKgh_fxsD744rfTFJ-7" value="    ptp_clock_cdc.v" style="swimlane;fontStyle=0;align=left;" vertex="1" parent="R2FVKgh_fxsD744rfTFJ-6">
          <mxGeometry x="345" y="45" width="160" height="160" as="geometry" />
        </mxCell>
        <mxCell id="R2FVKgh_fxsD744rfTFJ-8" value="&lt;div&gt;clock domain crossing between ptp clock and &lt;br&gt;&lt;/div&gt;&lt;div&gt;TSU of RX Frames&lt;br&gt;&lt;/div&gt;" style="text;html=1;strokeColor=none;fillColor=none;align=left;verticalAlign=top;whiteSpace=wrap;rounded=0;fontSize=10;labelPosition=center;verticalLabelPosition=middle;" vertex="1" parent="R2FVKgh_fxsD744rfTFJ-7">
          <mxGeometry x="10" y="30" width="140" height="130" as="geometry" />
        </mxCell>
        <mxCell id="R2FVKgh_fxsD744rfTFJ-9" value="    ptp_clock_cdc.v" style="swimlane;fontStyle=0;align=left;" vertex="1" parent="R2FVKgh_fxsD744rfTFJ-6">
          <mxGeometry x="105" y="45" width="160" height="160" as="geometry" />
        </mxCell>
        <mxCell id="R2FVKgh_fxsD744rfTFJ-10" value="&lt;div&gt;clock domain crossing between ptp clock and &lt;br&gt;&lt;/div&gt;&lt;div&gt;TSU of TX Frames&lt;br&gt;&lt;/div&gt;" style="text;html=1;strokeColor=none;fillColor=none;align=left;verticalAlign=top;whiteSpace=wrap;rounded=0;fontSize=10;labelPosition=center;verticalLabelPosition=middle;" vertex="1" parent="R2FVKgh_fxsD744rfTFJ-9">
          <mxGeometry x="10" y="30" width="140" height="130" as="geometry" />
        </mxCell>
        <mxCell id="-nhubuoIuJu4ggT3_inp-12" value="    eth_mac_1g_rgmii.v" style="swimlane;align=left;fontStyle=0" parent="R2FVKgh_fxsD744rfTFJ-6" vertex="1">
          <mxGeometry x="105" y="245" width="580" height="260" as="geometry">
            <mxRectangle x="10" y="230" width="110" height="23" as="alternateBounds" />
          </mxGeometry>
        </mxCell>
        <mxCell id="-nhubuoIuJu4ggT3_inp-2" value="    eth_mac_1g.v" style="swimlane;align=left;fontStyle=0" parent="-nhubuoIuJu4ggT3_inp-12" vertex="1">
          <mxGeometry x="390" y="50" width="160" height="160" as="geometry" />
        </mxCell>
        <mxCell id="-nhubuoIuJu4ggT3_inp-5" style="edgeStyle=orthogonalEdgeStyle;rounded=0;orthogonalLoop=1;jettySize=auto;html=1;exitX=1;exitY=0.25;exitDx=0;exitDy=0;entryX=0;entryY=0.25;entryDx=0;entryDy=0;" parent="-nhubuoIuJu4ggT3_inp-12" source="-nhubuoIuJu4ggT3_inp-3" target="-nhubuoIuJu4ggT3_inp-2" edge="1">
          <mxGeometry relative="1" as="geometry" />
        </mxCell>
        <mxCell id="-nhubuoIuJu4ggT3_inp-6" style="edgeStyle=orthogonalEdgeStyle;rounded=0;orthogonalLoop=1;jettySize=auto;html=1;startArrow=classic;startFill=1;endArrow=none;endFill=0;" parent="-nhubuoIuJu4ggT3_inp-12" edge="1">
          <mxGeometry relative="1" as="geometry">
            <mxPoint x="190" y="110" as="sourcePoint" />
            <mxPoint x="390" y="110" as="targetPoint" />
          </mxGeometry>
        </mxCell>
        <mxCell id="-nhubuoIuJu4ggT3_inp-3" value="    rgmii_phy_if.v" style="swimlane;fontStyle=0;align=left;" parent="-nhubuoIuJu4ggT3_inp-12" vertex="1">
          <mxGeometry x="30" y="50" width="160" height="160" as="geometry" />
        </mxCell>
        <mxCell id="-nhubuoIuJu4ggT3_inp-9" value="&lt;font style=&quot;font-size: 10px;&quot;&gt;gmii_rxd[7:0]&lt;/font&gt;" style="text;html=1;strokeColor=none;fillColor=none;align=center;verticalAlign=middle;whiteSpace=wrap;rounded=0;spacingBottom=6;" parent="-nhubuoIuJu4ggT3_inp-12" vertex="1">
          <mxGeometry x="250" y="70" width="60" height="30" as="geometry" />
        </mxCell>
        <mxCell id="-nhubuoIuJu4ggT3_inp-11" value="&lt;font style=&quot;font-size: 10px;&quot;&gt;gmii_txd[7:0]&lt;/font&gt;" style="text;html=1;strokeColor=none;fillColor=none;align=center;verticalAlign=middle;whiteSpace=wrap;rounded=0;spacingBottom=6;" parent="-nhubuoIuJu4ggT3_inp-12" vertex="1">
          <mxGeometry x="250" y="90" width="60" height="30" as="geometry" />
        </mxCell>
      </root>
    </mxGraphModel>
  </diagram>
</mxfile>
